<svg xmlns="http://www.w3.org/2000/svg" viewBox="0 0 220 220"><defs><linearGradient id="g" x1="0" x2="1" y1="0" y2="1"><stop stop-color="#fff4ad"/><stop offset=".45" stop-color="#f7bd44"/><stop offset="1" stop-color="#8a4b0f"/></linearGradient><filter id="s"><feDropShadow dx="0" dy="6" stdDeviation="8" flood-color="#f7bd44" flood-opacity=".55"/></filter></defs><path d="M69 28h82v27c0 46-17 70-41 78-24-8-41-32-41-78Z" fill="url(#g)" stroke="#fff" stroke-opacity=".55" stroke-width="3" filter="url(#s)"/><path d="M68 45H39c0 35 15 55 42 59M152 45h29c0 35-15 55-42 59" fill="none" stroke="url(#g)" stroke-width="13" stroke-linecap="round"/><path d="M110 132v28M79 189h62M91 160h38l8 29H83Z" fill="none" stroke="url(#g)" stroke-width="13" stroke-linecap="round" stroke-linejoin="round"/><path d="m110 48 9 18 20 3-15 14 4 20-18-9-18 9 4-20-15-14 20-3Z" fill="#4b2807" opacity=".85"/></svg>